<svg width="772" height="736" viewBox="0 0 772 736" fill="none" xmlns="http://www.w3.org/2000/svg">
<circle cx="40" cy="687" r="37.5" stroke="#FF6B00" stroke-width="5"/>
<path d="M40.014 681.574C41.0442 681.574 42.0514 681.879 42.9087 682.45C43.7661 683.021 44.4352 683.833 44.832 684.784C45.2287 685.735 45.3354 686.782 45.1384 687.793C44.9414 688.804 44.4497 689.735 43.7251 690.467C43.0005 691.199 42.0754 691.701 41.0663 691.909C40.0573 692.116 39.0093 692.021 38.0543 691.634C37.0994 691.248 36.2802 690.587 35.6998 689.736C35.1195 688.885 34.8039 687.881 34.7929 686.851C34.7893 686.161 34.9214 685.478 35.1818 684.84C35.4422 684.202 35.8257 683.621 36.3105 683.131C36.7954 682.641 37.372 682.251 38.0074 681.984C38.6428 681.717 39.3247 681.578 40.014 681.574ZM27.087 709.187C28.846 710.248 32.671 708.628 37.1382 704.44C35.6451 702.744 34.2381 700.973 32.9223 699.136C30.6703 698.883 28.4335 698.51 26.2215 698.019C24.7976 703.994 25.3281 708.098 27.087 709.187ZM29.0693 693.161L28.2597 691.737C27.944 692.521 27.6737 693.323 27.45 694.138C28.2038 694.305 29.0414 694.445 29.9069 694.585L29.0693 693.161ZM47.329 691.039L49.5905 686.851L47.329 682.663C46.4914 681.183 45.598 679.871 44.7883 678.558C43.2806 678.475 41.6892 678.475 40.014 678.475C38.3388 678.475 36.7473 678.475 35.2396 678.475C34.43 679.787 33.5365 681.099 32.6989 682.579L30.4374 686.851L32.6989 691.039C33.5365 692.518 34.43 693.831 35.2396 695.143C36.7473 695.143 38.3388 695.143 40.014 695.143C41.6892 695.143 43.2806 695.143 44.7883 695.143C45.598 693.831 46.4914 692.518 47.329 691.039ZM40.014 672.276C39.4835 672.891 38.9251 673.533 38.3667 674.287H41.6612C41.1028 673.533 40.5444 672.891 40.014 672.276ZM40.014 701.425C40.5444 700.811 41.1028 700.169 41.6612 699.415H38.3667C38.9251 700.169 39.4835 700.811 40.014 701.425ZM52.913 664.515C51.1819 663.454 47.329 665.073 42.8897 669.261C44.3828 670.958 45.7899 672.728 47.1056 674.566C49.3556 674.781 51.5923 675.117 53.8064 675.571C55.2303 669.596 54.6999 665.492 52.913 664.403M50.9586 680.429L51.7683 681.853C52.0839 681.069 52.3542 680.267 52.5779 679.452C51.8241 679.284 50.9865 679.145 50.121 679.005L50.9586 680.429ZM55.007 660.885C59.1112 663.23 59.5579 669.401 57.799 676.604C64.8906 678.698 70 682.188 70 686.879C70 691.569 64.8906 695.059 57.799 697.153C59.53 704.357 59.0833 710.527 55.007 712.872C50.9307 715.217 45.3746 712.537 40.014 707.428C34.6533 712.537 29.0973 715.217 24.993 712.872C20.8888 710.527 20.47 704.496 22.201 697.153C15.1094 695.059 10 691.569 10 686.879C10 682.188 15.1094 678.67 22.201 676.576C20.47 669.373 20.9167 663.203 24.993 660.857C29.0693 658.512 34.6533 661.192 40.014 666.302C45.3746 661.192 50.9307 658.512 55.007 660.857M54.1973 686.851C55.167 688.906 56.0244 691.012 56.7659 693.161C62.6291 691.402 65.9237 688.889 65.9237 686.851C65.9237 684.813 62.5454 682.3 56.7659 680.541C56.0244 682.689 55.167 684.795 54.1973 686.851ZM25.8306 686.851C24.861 684.795 24.0035 682.689 23.262 680.541C17.3988 682.3 14.1042 684.813 14.1042 686.851C14.1042 688.889 17.4826 691.402 23.262 693.161C24.0035 691.012 24.861 688.906 25.8306 686.851ZM50.9586 693.161L50.121 694.585C50.9865 694.585 51.8241 694.305 52.5779 694.138C52.3542 693.323 52.0839 692.521 51.7683 691.737L50.9586 693.161ZM42.806 704.44C47.2452 708.628 51.1819 710.248 52.8292 709.187C54.4765 708.126 55.1466 704.105 53.7227 698.019C51.5086 698.473 49.2718 698.809 47.0219 699.024C45.7092 700.9 44.302 702.707 42.806 704.44ZM29.0693 680.541L29.9069 679.117C29.0414 679.117 28.2038 679.396 27.45 679.564C27.6737 680.379 27.944 681.181 28.2597 681.965L29.0693 680.541ZM37.222 669.261C32.6989 665.073 28.846 663.454 27.087 664.515C25.3281 665.576 24.7976 669.596 26.2215 675.683C28.4356 675.228 30.6724 674.893 32.9223 674.678C34.2622 672.8 35.6973 670.992 37.222 669.261Z" fill="#FF6B00"/>
<circle cx="140" cy="423" r="37.5" stroke="#FF6B00" stroke-width="5"/>
<path d="M146.195 430.207C144.315 430.39 142.422 430.046 140.727 429.212C140.343 428.904 140.026 428.522 139.796 428.088C139.566 427.653 139.427 427.176 139.388 426.686C139.387 426.613 139.372 426.54 139.343 426.473C139.314 426.406 139.272 426.345 139.219 426.294C139.167 426.243 139.104 426.203 139.036 426.176C138.968 426.149 138.895 426.136 138.822 426.138C138.03 426.128 137.239 426.13 136.448 426.137C136.309 426.122 136.171 426.163 136.063 426.251C135.954 426.338 135.885 426.464 135.869 426.602C135.824 427.462 135.969 428.321 136.295 429.118C136.62 429.916 137.118 430.631 137.752 431.214C139.352 432.462 141.296 433.194 143.322 433.309C145.434 433.554 147.572 433.463 149.655 433.04C151.255 432.742 152.722 431.951 153.851 430.779C154.475 430.01 154.893 429.094 155.066 428.119C155.239 427.143 155.162 426.14 154.841 425.202C154.571 424.541 154.153 423.951 153.62 423.477C153.087 423.003 152.452 422.657 151.765 422.466C148.563 421.342 145.104 421.427 141.84 420.574C141.273 420.395 140.581 420.202 140.328 419.602C140.182 419.179 140.172 418.722 140.299 418.294C140.427 417.866 140.685 417.488 141.038 417.215C142.063 416.629 143.23 416.338 144.41 416.375C146.012 416.224 147.626 416.455 149.121 417.049C149.57 417.313 149.956 417.672 150.252 418.1C150.549 418.529 150.749 419.016 150.838 419.53C150.842 419.681 150.903 419.825 151.008 419.934C151.113 420.043 151.255 420.109 151.407 420.119C152.192 420.135 152.979 420.123 153.764 420.124C153.901 420.14 154.038 420.107 154.152 420.03C154.265 419.953 154.347 419.837 154.383 419.705C154.39 418.645 154.12 417.601 153.599 416.678C153.079 415.754 152.326 414.983 151.416 414.44C148.904 413.28 146.115 412.854 143.371 413.209C141.36 413.291 139.439 414.063 137.93 415.394C137.238 416.141 136.769 417.067 136.577 418.067C136.385 419.067 136.477 420.101 136.844 421.051C137.13 421.687 137.55 422.254 138.076 422.713C138.602 423.171 139.221 423.51 139.89 423.705C143.081 424.858 146.579 424.488 149.801 425.508C150.429 425.721 151.16 426.046 151.353 426.745C151.456 427.164 151.448 427.603 151.33 428.017C151.212 428.432 150.987 428.809 150.679 429.111C149.339 429.943 147.768 430.327 146.195 430.207ZM160.742 409.094C154.512 405.57 148.28 402.05 142.046 398.533C141.421 398.184 140.716 398 140 398C139.283 398 138.578 398.184 137.953 398.533C131.744 402.04 125.534 405.546 119.324 409.052C118.72 409.381 118.215 409.866 117.862 410.456C117.508 411.047 117.319 411.721 117.314 412.409V433.594C117.324 434.295 117.523 434.98 117.891 435.576C118.258 436.172 118.78 436.658 119.402 436.982C121.185 437.953 122.919 439.022 124.735 439.929C125.783 440.489 126.947 440.798 128.135 440.831C129.323 440.863 130.503 440.619 131.58 440.117C132.386 439.612 133.042 438.9 133.48 438.055C133.917 437.211 134.12 436.264 134.067 435.314C134.081 428.322 134.069 421.33 134.073 414.338C134.085 414.262 134.081 414.184 134.061 414.109C134.04 414.034 134.005 413.965 133.956 413.905C133.907 413.845 133.846 413.796 133.777 413.761C133.707 413.726 133.632 413.707 133.554 413.703C132.761 413.69 131.966 413.696 131.173 413.701C131.099 413.694 131.025 413.703 130.956 413.727C130.886 413.751 130.822 413.79 130.768 413.84C130.714 413.891 130.672 413.952 130.643 414.02C130.615 414.088 130.601 414.161 130.603 414.235C130.592 421.182 130.605 428.131 130.596 435.079C130.598 435.558 130.453 436.027 130.181 436.422C129.909 436.817 129.523 437.119 129.074 437.288C128.557 437.441 128.014 437.483 127.48 437.411C126.946 437.34 126.433 437.157 125.974 436.873C124.322 435.94 122.669 435.007 121.017 434.074C120.907 434.022 120.816 433.937 120.756 433.832C120.696 433.727 120.669 433.606 120.68 433.485C120.68 426.496 120.68 419.506 120.68 412.517C120.669 412.381 120.7 412.245 120.771 412.128C120.841 412.011 120.947 411.92 121.072 411.867C127.261 408.381 133.449 404.892 139.635 401.399C139.743 401.325 139.87 401.286 140 401.286C140.13 401.287 140.257 401.326 140.365 401.4C146.553 404.887 152.742 408.375 158.93 411.864C159.055 411.918 159.159 412.011 159.229 412.128C159.299 412.245 159.331 412.381 159.32 412.517C159.319 419.506 159.318 426.495 159.318 433.484C159.329 433.606 159.303 433.727 159.244 433.834C159.184 433.94 159.094 434.026 158.985 434.08C152.891 437.526 146.794 440.967 140.694 444.403C140.402 444.565 140.057 444.826 139.716 444.63C138.118 443.725 136.54 442.786 134.948 441.873C134.866 441.811 134.768 441.774 134.666 441.768C134.564 441.762 134.462 441.786 134.374 441.838C133.672 442.249 132.934 442.594 132.168 442.867C131.823 443.007 131.399 443.047 131.161 443.367C131.464 443.697 131.831 443.961 132.239 444.144C134.102 445.222 135.965 446.299 137.829 447.376C138.446 447.763 139.155 447.978 139.883 447.998C140.611 448.018 141.331 447.843 141.968 447.491C148.178 443.989 154.388 440.486 160.597 436.981C161.218 436.657 161.74 436.171 162.108 435.575C162.475 434.979 162.675 434.294 162.686 433.594V412.409C162.681 411.734 162.499 411.073 162.158 410.491C161.816 409.909 161.328 409.428 160.742 409.094Z" fill="#FF6B00"/>
<circle opacity="0.5" cx="262" cy="696" r="37.5" stroke="#FF6B00" stroke-width="5"/>
<path d="M255.937 688.349C255.475 687.327 255.268 686.136 255.621 685.054C255.974 683.948 256.764 683.061 257.554 682.234C259.754 680.034 262.465 678.417 264.616 676.181C265.807 674.953 266.792 673.482 267.132 671.793C267.412 670.553 267.278 669.277 267.023 668.049C268.166 669.35 268.543 671.209 268.214 672.887C267.862 674.771 266.816 676.436 265.589 677.87C264.604 679.025 263.473 680.046 262.295 680.995C260.921 682.101 259.572 683.292 258.709 684.848C257.979 686.112 257.809 687.668 258.308 689.041C259.122 691.399 261.018 693.15 262.052 695.374C260.909 694.365 259.791 693.32 258.745 692.214C257.651 691.047 256.618 689.807 255.937 688.349ZM262.136 686.501C261.93 688.434 262.939 690.257 264.142 691.691C264.725 692.335 265.224 693.126 265.248 694.025C265.273 695.228 264.592 696.347 263.716 697.137C263.923 697.113 264.069 696.93 264.239 696.833C265.552 695.994 266.816 694.937 267.46 693.49C267.886 692.506 267.789 691.339 267.23 690.427C266.573 689.357 265.71 688.409 265.2 687.242C264.92 686.586 264.823 685.82 265.054 685.127C265.358 684.192 266.014 683.426 266.707 682.757C268.615 680.946 270.925 679.657 273.137 678.247C270.341 679.05 267.582 680.156 265.224 681.894C263.729 683.012 262.343 684.568 262.136 686.501ZM275.423 695.642C276.748 695.715 278.048 696.687 278.291 698.024C278.522 699.179 277.963 700.322 277.246 701.197C276.066 702.607 274.474 703.616 272.87 704.479C272.712 704.576 272.578 704.697 272.456 704.831C274.572 704.296 276.686 703.494 278.4 702.121C279.348 701.33 280.187 700.285 280.369 699.033C280.54 697.951 280.09 696.833 279.288 696.116C278.315 695.228 276.942 694.9 275.653 695.07C274.912 695.168 274.097 695.326 273.587 695.946C274.195 695.824 274.79 695.581 275.423 695.642ZM249.033 699.118C250.625 699.543 252.266 699.665 253.895 699.775C255.354 699.872 256.813 699.896 258.284 699.884C262.076 699.823 265.893 699.568 269.612 698.741C269.964 698.656 270.353 698.596 270.67 698.377C271.29 697.975 271.97 697.659 272.639 697.343C269.612 697.83 266.573 698.243 263.51 698.438C260.41 698.632 257.286 698.754 254.175 698.547C253.288 698.462 252.376 698.413 251.549 698.073C251.355 697.988 251.087 697.818 251.184 697.562C251.367 697.234 251.731 697.076 252.047 696.906C253.385 696.274 254.843 695.921 256.265 695.508C253.822 695.471 251.391 696.091 249.155 697.052C248.656 697.295 248.097 697.489 247.696 697.903C247.538 698.073 247.538 698.365 247.72 698.51C248.085 698.839 248.571 698.984 249.033 699.118ZM268.725 702.461C266.598 702.838 264.458 703.191 262.306 703.3C259.948 703.458 257.59 703.324 255.256 703.081C254.807 703.02 254.357 702.947 253.956 702.741C253.749 702.619 253.543 702.425 253.555 702.169C253.579 701.768 253.919 701.489 254.163 701.197C253.409 701.464 252.655 701.744 252.023 702.242C251.756 702.449 251.488 702.777 251.561 703.142C251.671 703.567 252.084 703.822 252.449 704.017C253.348 704.479 254.357 704.685 255.342 704.868C257.833 705.269 260.374 705.281 262.878 705.111C265.528 704.904 268.166 704.467 270.73 703.713C270.001 703.385 269.308 703.008 268.725 702.461ZM255.366 706.667C254.685 706.861 253.992 707.093 253.433 707.542C253.153 707.761 252.935 708.138 253.069 708.49C253.239 708.94 253.664 709.208 254.065 709.438C255.111 710.01 256.29 710.277 257.444 710.484C260.058 710.897 262.744 710.836 265.346 710.374C266.889 710.083 268.433 709.669 269.867 709.025C268.931 708.636 268.02 708.198 267.145 707.688C265.625 707.955 264.093 708.235 262.537 708.332C260.484 708.49 258.405 708.32 256.35 708.065C255.864 707.956 255.256 707.907 254.928 707.481C254.758 707.129 255.147 706.873 255.366 706.667ZM271.995 714.483C273.696 714.131 275.41 713.729 276.966 712.939C277.452 712.659 278.048 712.355 278.206 711.772C278.291 711.213 277.708 710.921 277.294 710.69C277.549 710.982 277.72 711.408 277.464 711.748C277.039 712.319 276.31 712.538 275.665 712.757C273.648 713.328 271.557 713.559 269.478 713.79C263.972 714.288 258.429 714.41 252.923 713.948C251.075 713.753 249.191 713.547 247.428 712.891C247.149 712.769 246.724 712.647 246.724 712.27C246.833 711.943 247.149 711.76 247.428 711.602C248.693 710.958 250.103 710.605 251.513 710.52C251.1 710.277 250.613 710.253 250.139 710.265C248.96 710.301 247.805 710.605 246.687 710.982C245.727 711.334 244.742 711.724 243.976 712.429C243.673 712.696 243.393 713.206 243.709 713.571C244.195 714.094 244.949 714.227 245.617 714.385C249.361 715.03 253.153 715.394 256.946 715.528C261.979 715.674 267.047 715.455 271.995 714.483ZM276.978 715.139C274.693 715.869 272.323 716.27 269.964 716.598C265.893 717.108 261.784 717.266 257.687 717.145C255.196 717.048 252.704 716.878 250.248 716.464C250.82 716.853 251.525 716.974 252.181 717.157C254.941 717.741 257.773 717.85 260.581 717.935C264.701 718.008 268.822 717.85 272.882 717.206C274.803 716.866 276.735 716.452 278.461 715.553C279.361 715.079 280.273 714.349 280.43 713.292C279.519 714.264 278.206 714.714 276.978 715.139Z" fill="#FF6B00"/>
<circle cx="558" cy="656" r="37.5" stroke="#FF6B00" stroke-width="5"/>
<path d="M541.333 668.5V643.5" stroke="#FF6B00" stroke-width="6" stroke-linecap="round"/>
<path d="M574.667 643.5V668.5" stroke="#FF6B00" stroke-width="6" stroke-linecap="round"/>
<path d="M558 651.833C567.205 651.833 574.667 648.102 574.667 643.5C574.667 638.898 567.205 635.167 558 635.167C548.795 635.167 541.333 638.898 541.333 643.5C541.333 648.102 548.795 651.833 558 651.833Z" stroke="#FF6B00" stroke-width="6"/>
<path d="M574.667 656C574.667 660.602 567.205 664.333 558 664.333C548.795 664.333 541.333 660.602 541.333 656" stroke="#FF6B00" stroke-width="6"/>
<path d="M574.667 668.5C574.667 673.102 567.205 676.833 558 676.833C548.795 676.833 541.333 673.102 541.333 668.5" stroke="#FF6B00" stroke-width="6"/>
<circle cx="264" cy="80" r="37.5" stroke="#FF6B00" stroke-width="5"/>
<path d="M264 53L289 61.9084L285.21 94.9966L264 106.733L242.79 94.9966L239 61.9084L264 53ZM264 58.6561L244.204 65.7262L247.258 91.8009L264 101.077L280.742 91.8009L283.796 65.7262L264 58.6561ZM264 62.1063L276.952 91.1787H272.117L269.486 84.7308H258.344L255.855 91.1787H251.019L264 62.1063ZM267.79 80.7149L264 71.5803L260.21 80.7149H267.79Z" fill="#FF6B00"/>
<circle cx="692" cy="414" r="37.5" stroke="#FF6B00" stroke-width="5"/>
<g clip-path="url(#clip0_18_59)">
<path d="M686 394H690M680 400V390C680 387.791 681.791 386 684 386H700C702.209 386 704 387.791 704 390V410C704 412.209 702.209 414 700 414H684C681.791 414 680 415.791 680 418V438C680 440.209 681.791 442 684 442H700C702.209 442 704 440.209 704 438V428M694 402H668C665.791 402 664 403.791 664 406V426C664 428.209 665.791 430 668 430H680M690 426H716C718.209 426 720 424.209 720 422V402C720 399.791 718.209 398 716 398H704M694 434H698" stroke="#FF6B00" stroke-width="5"/>
</g>
<circle cx="732" cy="588" r="37.5" stroke="#FF6B00" stroke-width="5"/>
<path d="M729.266 589.258L738.99 592.198C738.337 594.925 737.308 597.203 735.904 599.032C734.499 600.861 732.756 602.241 730.674 603.172C728.592 604.103 725.942 604.568 722.724 604.568C718.822 604.568 715.633 604.001 713.159 602.867C710.684 601.732 708.55 599.738 706.753 596.881C704.957 594.026 704.059 590.37 704.059 585.914C704.059 579.974 705.639 575.408 708.798 572.218C711.958 569.028 716.429 567.432 722.211 567.432C726.734 567.432 730.29 568.347 732.878 570.176C735.467 572.005 737.389 574.814 738.647 578.602L728.849 580.782C728.506 579.689 728.147 578.888 727.771 578.382C727.151 577.533 726.391 576.879 725.493 576.422C724.594 575.965 723.591 575.736 722.48 575.736C719.964 575.736 718.038 576.748 716.698 578.77C715.687 580.271 715.18 582.628 715.18 585.841C715.18 589.821 715.784 592.549 716.992 594.026C718.201 595.502 719.9 596.239 722.088 596.239C724.21 596.239 725.815 595.643 726.901 594.451C727.988 593.26 728.776 591.528 729.266 589.258ZM758.313 583.654V578.025H753.591V583.654H746.817V578.025H742.094V583.654H736.495V588.376H742.094V593.975H746.817V588.376H753.591V593.975H758.313V588.376H763.941V583.654H758.313Z" fill="#FF6B00"/>
<circle cx="478" cy="40" r="37.5" stroke="#FF6B00" stroke-width="5"/>
<g clip-path="url(#clip1_18_59)">
<path d="M474.876 32.1875C470.561 32.1875 467.063 35.6855 467.063 40.0005C467.063 44.3155 470.561 47.8134 474.876 47.8134C477.101 47.8134 479.106 46.8863 480.532 45.3906C481.425 44.4538 482.908 44.4183 483.845 45.3115C484.782 46.2047 484.818 47.6881 483.924 48.625C481.651 51.01 478.435 52.5009 474.876 52.5009C467.972 52.5009 462.375 46.9044 462.375 40.0005C462.375 33.0967 467.972 27.5 474.876 27.5C478.42 27.5 481.624 28.9784 483.896 31.3459C484.792 32.2798 484.761 33.7635 483.827 34.6597C482.893 35.556 481.41 35.5255 480.514 34.5916C479.089 33.107 477.092 32.1875 474.876 32.1875Z" fill="#FF6B00"/>
<path d="M473.582 15.3193C474.312 14.8936 475.215 14.8936 475.944 15.3193L490.677 23.913C491.795 24.5653 492.172 26.0003 491.52 27.1184C490.868 28.2365 489.433 28.6142 488.315 27.962L474.763 20.0571L457.688 30.0181V49.9819L474.763 59.9428L488.315 52.0381C489.433 51.3859 490.868 51.7634 491.52 52.8816C492.172 53.9997 491.795 55.4347 490.677 56.0869L475.944 64.6806C475.215 65.1066 474.312 65.1066 473.582 64.6806L454.163 53.3525C453.443 52.9325 453 52.1619 453 51.3281V28.6719C453 27.8383 453.443 27.0674 454.163 26.6474L473.582 15.3193Z" fill="#FF6B00"/>
<path d="M491.062 31.4062C491.925 31.4062 492.625 32.1058 492.625 32.9688V47.0312C492.625 47.8941 491.925 48.5938 491.062 48.5938C490.199 48.5938 489.5 47.8941 489.5 47.0312V32.9688C489.5 32.1058 490.199 31.4062 491.062 31.4062Z" fill="#FF6B00"/>
<path d="M497.75 31.4062C498.613 31.4062 499.313 32.1058 499.313 32.9688V47.0312C499.313 47.8941 498.613 48.5938 497.75 48.5938C496.888 48.5938 496.188 47.8941 496.188 47.0312V32.9688C496.188 32.1058 496.888 31.4062 497.75 31.4062Z" fill="#FF6B00"/>
<path d="M485.812 36.656C485.812 35.7931 486.512 35.0935 487.375 35.0935H501.438C502.3 35.0935 503 35.7931 503 36.656C503 37.5189 502.3 38.2185 501.438 38.2185H487.375C486.512 38.2185 485.812 37.5189 485.812 36.656Z" fill="#FF6B00"/>
<path d="M485.812 43.344C485.812 42.4811 486.512 41.7815 487.375 41.7815H501.438C502.3 41.7815 503 42.4811 503 43.344C503 44.2069 502.3 44.9065 501.438 44.9065H487.375C486.512 44.9065 485.812 44.2069 485.812 43.344Z" fill="#FF6B00"/>
</g>
<circle cx="704" cy="145" r="37.5" stroke="#FF6B00" stroke-width="5"/>
<path d="M724.2 136.1C723.369 136.1 722.572 136.43 721.984 137.018C721.397 137.605 721.067 138.402 721.067 139.233V153.433C721.067 154.264 721.397 155.061 721.984 155.649C722.572 156.237 723.369 156.567 724.2 156.567C725.031 156.567 725.828 156.237 726.416 155.649C727.003 155.061 727.333 154.264 727.333 153.433V139.233C727.333 138.402 727.003 137.605 726.416 137.018C725.828 136.43 725.031 136.1 724.2 136.1Z" fill="#FF6B00"/>
<path d="M683.8 136.1C682.969 136.1 682.172 136.43 681.584 137.018C680.997 137.605 680.667 138.402 680.667 139.233V153.433C680.667 154.264 680.997 155.061 681.584 155.649C682.172 156.237 682.969 156.567 683.8 156.567C684.631 156.567 685.428 156.237 686.016 155.649C686.603 155.061 686.933 154.264 686.933 153.433V139.233C686.933 138.402 686.603 137.605 686.016 137.018C685.428 136.43 684.631 136.1 683.8 136.1Z" fill="#FF6B00"/>
<path d="M689.2 136.1V157.433C689.2 157.902 689.292 158.366 689.471 158.798C689.651 159.231 689.913 159.624 690.245 159.955C690.576 160.287 690.969 160.549 691.402 160.729C691.834 160.908 692.298 161 692.767 161H695.033V168.567C695.033 169.398 695.363 170.195 695.951 170.782C696.539 171.37 697.336 171.7 698.167 171.7C698.998 171.7 699.795 171.37 700.382 170.782C700.97 170.195 701.3 169.398 701.3 168.567V161H706.7V168.567C706.7 169.398 707.03 170.195 707.618 170.782C708.205 171.37 709.002 171.7 709.833 171.7C710.664 171.7 711.461 171.37 712.049 170.782C712.637 170.195 712.967 169.398 712.967 168.567V161H715.233C716.179 161 717.086 160.624 717.755 159.955C718.424 159.287 718.8 158.379 718.8 157.433V136.1H689.2Z" fill="#FF6B00"/>
<path d="M718.4 131.667C717.419 128.375 715.243 125.57 712.3 123.8L711.8 123.5L711.267 123.233L711.867 122.2L713.633 118.867C713.667 118.772 713.669 118.668 713.639 118.572C713.609 118.476 713.548 118.392 713.467 118.333H713.233C713.148 118.337 713.065 118.36 712.99 118.401C712.915 118.441 712.85 118.498 712.8 118.567L711 121.667L710.433 122.7L709.9 122.467L709.333 122.267C705.879 121.068 702.121 121.068 698.667 122.267L698.133 122.467L697.567 122.7L697 121.667L695.2 118.333C695.169 118.279 695.128 118.231 695.079 118.192C695.03 118.153 694.973 118.124 694.913 118.107C694.853 118.09 694.789 118.085 694.727 118.092C694.665 118.1 694.605 118.119 694.55 118.15C694.495 118.181 694.447 118.222 694.408 118.271C694.369 118.32 694.341 118.377 694.324 118.437C694.307 118.497 694.302 118.561 694.309 118.623C694.316 118.685 694.336 118.745 694.367 118.8L696.133 122.133L696.733 123.167L696.2 123.433L695.7 123.733C692.743 125.51 690.573 128.347 689.633 131.667C689.373 132.533 689.227 133.429 689.2 134.333H718.8C718.767 133.432 718.633 132.538 718.4 131.667ZM697.333 129.9C697.07 129.9 696.812 129.822 696.593 129.675C696.373 129.529 696.202 129.321 696.101 129.077C696.001 128.833 695.974 128.565 696.026 128.307C696.077 128.048 696.204 127.81 696.39 127.624C696.577 127.437 696.815 127.31 697.073 127.259C697.332 127.208 697.6 127.234 697.844 127.335C698.087 127.436 698.295 127.607 698.442 127.826C698.588 128.045 698.667 128.303 698.667 128.567C698.667 128.92 698.526 129.259 698.276 129.51C698.026 129.76 697.687 129.9 697.333 129.9ZM710.667 129.9C710.403 129.9 710.145 129.822 709.926 129.675C709.707 129.529 709.536 129.321 709.435 129.077C709.334 128.833 709.307 128.565 709.359 128.307C709.41 128.048 709.537 127.81 709.724 127.624C709.91 127.437 710.148 127.31 710.407 127.259C710.665 127.208 710.933 127.234 711.177 127.335C711.421 127.436 711.629 127.607 711.775 127.826C711.922 128.045 712 128.303 712 128.567C712 128.92 711.86 129.259 711.609 129.51C711.359 129.76 711.02 129.9 710.667 129.9Z" fill="#FF6B00"/>
<line x1="702.698" y1="562.134" x2="620.698" y2="512.135" stroke="#FF6B00" stroke-width="5"/>
<line x1="601.859" y1="423.504" x2="654.859" y2="420.504" stroke="#FF6B00" stroke-width="5"/>
<line x1="270.538" y1="659.563" x2="292.538" y2="535.563" stroke="#FF6B00" stroke-width="5"/>
<line x1="73.3886" y1="666.089" x2="245.389" y2="521.089" stroke="#FF6B00" stroke-width="5"/>
<line x1="550.564" y1="616.56" x2="530.564" y2="529.56" stroke="#FF6B00" stroke-width="5"/>
<line x1="236.869" y1="428.497" x2="179.869" y2="425.497" stroke="#FF6B00" stroke-width="5"/>
<line x1="372.018" y1="216.523" x2="289.018" y2="108.523" stroke="#FF6B00" stroke-width="5"/>
<line x1="439.59" y1="184.337" x2="469.59" y2="75.3366" stroke="#FF6B00" stroke-width="5"/>
<line x1="488.202" y1="212.631" x2="669.202" y2="151.631" stroke="#FF6B00" stroke-width="5"/>
<g clip-path="url(#clip2_18_59)">
<path d="M422 281.293C439.581 281.293 453.833 267.041 453.833 249.46C453.833 231.879 439.581 217.627 422 217.627C404.419 217.627 390.167 231.879 390.167 249.46C390.167 267.041 404.419 281.293 422 281.293Z" stroke="#FF6B00" stroke-width="10" stroke-miterlimit="10"/>
<path d="M374.333 328.96C374.333 316.318 379.355 304.194 388.295 295.255C397.234 286.315 409.358 281.293 422 281.293C434.642 281.293 446.766 286.315 455.705 295.255C464.645 304.194 469.667 316.318 469.667 328.96" stroke="#FF6B00" stroke-width="10" stroke-miterlimit="10"/>
<path d="M549.333 472.127C566.914 472.127 581.167 457.874 581.167 440.293C581.167 422.712 566.914 408.46 549.333 408.46C531.752 408.46 517.5 422.712 517.5 440.293C517.5 457.874 531.752 472.127 549.333 472.127Z" stroke="#FF6B00" stroke-width="10" stroke-miterlimit="10"/>
<path d="M501.5 519.96C501.478 513.672 502.7 507.442 505.096 501.629C507.492 495.816 511.015 490.534 515.461 486.088C519.907 481.641 525.189 478.119 531.002 475.723C536.816 473.327 543.046 472.105 549.333 472.127C555.607 472.127 561.819 473.365 567.613 475.771C573.407 478.177 578.669 481.703 583.098 486.147C587.526 490.591 591.034 495.865 593.42 501.668C595.805 507.47 597.022 513.686 597 519.96" stroke="#FF6B00" stroke-width="10" stroke-miterlimit="10"/>
<path d="M294.667 472.127C312.248 472.127 326.5 457.874 326.5 440.293C326.5 422.712 312.248 408.46 294.667 408.46C277.086 408.46 262.833 422.712 262.833 440.293C262.833 457.874 277.086 472.127 294.667 472.127Z" stroke="#FF6B00" stroke-width="10" stroke-miterlimit="10"/>
<path d="M247 519.96C246.978 513.686 248.195 507.47 250.581 501.668C252.966 495.865 256.474 490.591 260.902 486.147C265.331 481.703 270.593 478.177 276.387 475.771C282.181 473.365 288.393 472.127 294.667 472.127C300.954 472.105 307.184 473.327 312.998 475.723C318.811 478.119 324.093 481.641 328.539 486.088C332.985 490.534 336.508 495.816 338.904 501.629C341.3 507.442 342.522 513.672 342.5 519.96" stroke="#FF6B00" stroke-width="10" stroke-miterlimit="10"/>
<path d="M263.167 382.127C264.919 355.537 273.333 329.816 287.633 307.331C301.934 284.846 321.662 266.32 345 253.46" stroke="#FF6B00" stroke-width="20" stroke-miterlimit="10"/>
<path d="M499 253.46C522.338 266.32 542.066 284.846 556.367 307.331C570.667 329.816 579.081 355.537 580.833 382.127" stroke="#FF6B00" stroke-width="20" stroke-miterlimit="10"/>
<path d="M361.833 555.793C400.392 571.576 443.608 571.576 482.167 555.793" stroke="#FF6B00" stroke-width="20" stroke-miterlimit="10"/>
</g>
<defs>
<clipPath id="clip0_18_59">
<rect width="60" height="60" fill="white" transform="translate(662 384)"/>
</clipPath>
<clipPath id="clip1_18_59">
<rect width="50" height="50" fill="white" transform="translate(453 15)"/>
</clipPath>
<clipPath id="clip2_18_59">
<rect width="400" height="395.781" fill="white" transform="translate(222 192.627)"/>
</clipPath>
</defs>
</svg>
